# xmcd CD database file
#
# Track frame offsets:
#	150
#	14065
#	28925
#	42471
#	64664
#	79902
#	93830
#	112699
#	124346
#	137638
#	152780
#	162480
#	180661
#	193857
#	204002
#	225232
#	237477
#	249427
#	264950
#	280710
#	304294
#	322679
#
# Disc length: 4517 seconds
#
# Revision: 0
# Processed by: cddbd v1.5.2PL0 Copyright (c) Steve Scherf et al.
# Submitted via: CDex 1.51
#
DISCID=2511a316
DTITLE=Corb Lund - Best of Corb Lund
DYEAR=2009
DGENRE=Country
TTITLE0=Hockey Song 2003
TTITLE1=Always Keep An Edge On Your Knife
TTITLE2=The Truck Got Stuck
TTITLE3=Lament For Lester Cousins
TTITLE4=The Case Of The Wine Soaked Preacher
TTITLE5=Apocalyptic Modified Blues
TTITLE6=Brother Brigham, Brother Young
TTITLE7=Five Dollar Bill
TTITLE8=Expectation And The Blues
TTITLE9=Heavy And Leaving
TTITLE10=Young And Jaded
TTITLE11=All I Wanna Do Is Play Cards
TTITLE12=Time To Switch To Whiskey
TTITLE13=Big Butch Bass Bull Fiddle
TTITLE14=Hurtin' Albertan
TTITLE15=Evil In Me
TTITLE16=What That Song Means Now
TTITLE17=Counterfeiter's Blues
TTITLE18=The Truth Comes Out
TTITLE19=Horse Soldier, Horse Soldier
TTITLE20=Student Visas
TTITLE21=Buckin' Horse Rider
EXTD=YEAR: 2009
EXTT0=
EXTT1=
EXTT2=
EXTT3=
EXTT4=
EXTT5=
EXTT6=
EXTT7=
EXTT8=
EXTT9=
EXTT10=
EXTT11=
EXTT12=
EXTT13=
EXTT14=
EXTT15=
EXTT16=
EXTT17=
EXTT18=
EXTT19=
EXTT20=
EXTT21=
PLAYORDER=
